<?xml version="1.0" encoding="UTF-8" standalone="no"?>
<!-- Generator: Adobe Illustrator 19.0.0, SVG Export Plug-In . SVG Version: 6.00 Build 0)  -->

<svg
   xmlns:dc="http://purl.org/dc/elements/1.1/"
   xmlns:cc="http://creativecommons.org/ns#"
   xmlns:rdf="http://www.w3.org/1999/02/22-rdf-syntax-ns#"
   xmlns:svg="http://www.w3.org/2000/svg"
   xmlns="http://www.w3.org/2000/svg"
   xmlns:sodipodi="http://sodipodi.sourceforge.net/DTD/sodipodi-0.dtd"
   xmlns:inkscape="http://www.inkscape.org/namespaces/inkscape"
   version="1.1"
   id="Capa_1"
   x="0px"
   y="0px"
   viewBox="0 0 150 150"
   xml:space="preserve"
   sodipodi:docname="user.svg"
   width="150"
   height="150"
   inkscape:version="0.92.4 5da689c313, 2019-01-14"
   inkscape:export-filename="/home/alexander/Projects/mobile/facuEvent/assets/user.png"
   inkscape:export-xdpi="96"
   inkscape:export-ydpi="96"><metadata
   id="metadata43"><rdf:RDF><cc:Work
       rdf:about=""><dc:format>image/svg+xml</dc:format><dc:type
         rdf:resource="http://purl.org/dc/dcmitype/StillImage" /><dc:title></dc:title></cc:Work></rdf:RDF></metadata><defs
   id="defs41" /><sodipodi:namedview
   pagecolor="#ffffff"
   bordercolor="#666666"
   borderopacity="1"
   objecttolerance="10"
   gridtolerance="10"
   guidetolerance="10"
   inkscape:pageopacity="0"
   inkscape:pageshadow="2"
   inkscape:window-width="1366"
   inkscape:window-height="740"
   id="namedview39"
   showgrid="false"
   inkscape:zoom="2.2264151"
   inkscape:cx="68.538103"
   inkscape:cy="74.945963"
   inkscape:window-x="0"
   inkscape:window-y="0"
   inkscape:window-maximized="1"
   inkscape:current-layer="Capa_1" />
















<path
   inkscape:connector-curvature="0"
   style="fill:#ffffff;stroke-width:2.83024454"
   d="m 52.680237,117.59997 -22.379164,12.20662 c -1.313258,0.71603 -2.493492,1.59622 -3.591647,2.55566 C 39.757098,143.3632 56.6002,150 75.002795,150 c 18.266742,0 35.002295,-6.53774 48.013175,-17.38869 -1.20005,-1.01321 -2.50199,-1.92453 -3.94544,-2.6434 L 95.1064,117.98771 c -3.096346,-1.54812 -5.052082,-4.71227 -5.052082,-8.1736 v -9.40189 c 0.673611,-0.766986 1.443452,-1.751893 2.267069,-2.915102 3.266163,-4.613212 5.737013,-9.687745 7.449343,-15.011336 3.0737,-0.948114 5.33794,-3.786796 5.33794,-7.160385 V 65.289538 c 0,-2.207549 -0.98211,-4.180193 -2.50764,-5.561326 V 45.220649 c 0,0 2.9803,-22.576438 -27.595404,-22.576438 -30.575706,0 -27.595403,22.576438 -27.595403,22.576438 v 14.507563 c -1.528361,1.381133 -2.507644,3.353777 -2.507644,5.561326 v 10.035859 c 0,2.643399 1.389676,4.969817 3.469945,6.314158 2.507644,10.916049 9.073935,18.772665 9.073935,18.772665 v 9.16982 c -0.0028,3.33962 -1.831203,6.41604 -4.766222,8.01793 z"
   id="path2" /><g
   id="g6"
   transform="matrix(2.8302977,0,0,2.8301916,-9.3759861e-5,-1.52e-4)"
   style="fill:#cccccc">
	<path
   inkscape:connector-curvature="0"
   style="fill:#cccccc"
   d="M 26.953,0.004 C 12.32,-0.246 0.254,11.414 0.004,26.047 -0.138,34.344 3.56,41.801 9.448,46.76 c 0.385,-0.336 0.798,-0.644 1.257,-0.894 l 7.907,-4.313 c 1.037,-0.566 1.683,-1.653 1.683,-2.835 v -3.24 c 0,0 -2.321,-2.776 -3.206,-6.633 -0.734,-0.475 -1.226,-1.296 -1.226,-2.231 v -3.546 c 0,-0.78 0.347,-1.477 0.886,-1.965 v -5.126 c 0,0 -1.053,-7.977 9.75,-7.977 10.803,0 9.75,7.977 9.75,7.977 v 5.126 c 0.54,0.488 0.886,1.185 0.886,1.965 v 3.546 c 0,1.192 -0.8,2.195 -1.886,2.53 -0.605,1.881 -1.478,3.674 -2.632,5.304 -0.291,0.411 -0.563,0.759 -0.801,1.03 V 38.8 c 0,1.223 0.691,2.342 1.785,2.888 l 8.467,4.233 c 0.508,0.254 0.967,0.575 1.39,0.932 5.71,-4.762 9.399,-11.882 9.536,-19.9 C 53.246,12.32 41.587,0.254 26.953,0.004 Z"
   id="path4" />
</g><g
   id="g8"
   transform="matrix(2.8302977,0,0,2.8301916,-9.3759861e-5,-1.52e-4)">
</g><g
   id="g10"
   transform="matrix(2.8302977,0,0,2.8301916,-9.3759861e-5,-1.52e-4)">
</g><g
   id="g12"
   transform="matrix(2.8302977,0,0,2.8301916,-9.3759861e-5,-1.52e-4)">
</g><g
   id="g14"
   transform="matrix(2.8302977,0,0,2.8301916,-9.3759861e-5,-1.52e-4)">
</g><g
   id="g16"
   transform="matrix(2.8302977,0,0,2.8301916,-9.3759861e-5,-1.52e-4)">
</g><g
   id="g18"
   transform="matrix(2.8302977,0,0,2.8301916,-9.3759861e-5,-1.52e-4)">
</g><g
   id="g20"
   transform="matrix(2.8302977,0,0,2.8301916,-9.3759861e-5,-1.52e-4)">
</g><g
   id="g22"
   transform="matrix(2.8302977,0,0,2.8301916,-9.3759861e-5,-1.52e-4)">
</g><g
   id="g24"
   transform="matrix(2.8302977,0,0,2.8301916,-9.3759861e-5,-1.52e-4)">
</g><g
   id="g26"
   transform="matrix(2.8302977,0,0,2.8301916,-9.3759861e-5,-1.52e-4)">
</g><g
   id="g28"
   transform="matrix(2.8302977,0,0,2.8301916,-9.3759861e-5,-1.52e-4)">
</g><g
   id="g30"
   transform="matrix(2.8302977,0,0,2.8301916,-9.3759861e-5,-1.52e-4)">
</g><g
   id="g32"
   transform="matrix(2.8302977,0,0,2.8301916,-9.3759861e-5,-1.52e-4)">
</g><g
   id="g34"
   transform="matrix(2.8302977,0,0,2.8301916,-9.3759861e-5,-1.52e-4)">
</g><g
   id="g36"
   transform="matrix(2.8302977,0,0,2.8301916,-9.3759861e-5,-1.52e-4)">
</g>
</svg>